<?xml version="1.0" standalone="no"?>
<!DOCTYPE svg PUBLIC "-//W3C//DTD SVG 20010904//EN"
 "http://www.w3.org/TR/2001/REC-SVG-20010904/DTD/svg10.dtd">
<svg version="1.0" xmlns="http://www.w3.org/2000/svg"
 width="519.000000pt" height="519.000000pt" viewBox="0 0 519.000000 519.000000"
 preserveAspectRatio="xMidYMid meet">
<metadata>
Created by potrace 1.11, written by Peter Selinger 2001-2013
</metadata>
<g transform="translate(0.000000,519.000000) scale(0.100000,-0.100000)"
fill="#000000" stroke="none">
<path d="M2328 5176 c-13 -6 -44 -11 -71 -9 -26 1 -45 -2 -42 -7 2 -4 -4 -10
-15 -13 -11 -3 -23 -1 -26 4 -3 6 -11 6 -19 -1 -8 -7 -19 -9 -25 -5 -5 3 -10
2 -10 -3 0 -5 -10 -12 -22 -15 -22 -6 -22 -6 -4 8 11 8 15 15 9 15 -6 0 -16
-7 -23 -15 -7 -9 -19 -14 -26 -11 -7 3 -14 0 -16 -6 -3 -7 -23 -13 -46 -14
-27 -1 -39 2 -35 9 3 6 1 7 -6 3 -6 -4 -9 -11 -6 -16 3 -4 -3 -11 -12 -14 -9
-4 -20 -1 -25 6 -6 11 -8 10 -8 0 0 -7 -5 -10 -10 -7 -6 3 -17 -1 -26 -9 -8
-9 -22 -16 -30 -16 -8 0 -13 -4 -10 -9 8 -12 -27 -8 -36 4 -5 6 -8 3 -8 -7 0
-12 -5 -15 -17 -11 -12 5 -14 3 -8 -8 6 -11 5 -12 -5 -2 -10 10 -20 8 -43 -9
-17 -12 -27 -17 -23 -10 4 7 2 12 -3 12 -6 0 -11 -7 -11 -15 0 -8 -7 -15 -16
-15 -9 0 -12 5 -8 12 4 7 3 8 -5 4 -6 -4 -9 -12 -6 -17 4 -5 -3 -9 -14 -9 -12
0 -21 -6 -21 -12 0 -9 -4 -8 -10 2 -9 14 -14 7 -11 -13 1 -4 -7 -3 -18 2 -15
9 -18 7 -17 -7 1 -12 -6 -17 -26 -16 -15 1 -25 -3 -22 -7 3 -5 -2 -9 -11 -9
-9 0 -13 -4 -10 -10 4 -6 -1 -7 -11 -3 -11 4 -15 3 -10 -5 3 -6 1 -14 -5 -18
-8 -4 -9 -3 -5 4 4 7 2 12 -3 12 -6 0 -11 -5 -11 -11 0 -5 -4 -7 -10 -4 -5 3
-10 -1 -10 -10 0 -12 -4 -14 -19 -5 -14 7 -22 7 -27 -2 -5 -7 -3 -8 7 -3 11 7
11 5 -1 -9 -8 -11 -16 -14 -18 -7 -2 6 -9 11 -15 11 -5 0 -8 -3 -4 -6 10 -11
-22 -36 -35 -28 -8 5 -7 0 2 -11 14 -17 14 -18 -6 -7 -19 10 -23 9 -27 -8 -3
-13 -10 -18 -21 -14 -11 4 -16 0 -16 -12 0 -16 -2 -17 -10 -4 -9 15 -11 13
-14 -12 0 -6 -7 -13 -15 -16 -9 -3 -11 0 -6 8 5 9 4 11 -4 6 -9 -6 -9 -11 1
-24 11 -13 11 -14 0 -8 -7 4 -20 2 -29 -6 -14 -11 -16 -11 -8 2 8 13 7 13 -8
1 -20 -16 -23 -36 -4 -25 6 4 8 3 4 -1 -10 -11 -39 -16 -32 -6 2 4 -2 8 -10 8
-8 0 -12 -4 -9 -8 7 -12 -37 -59 -48 -53 -5 4 -16 -4 -25 -16 -11 -16 -22 -20
-42 -16 -14 3 -20 3 -13 0 10 -5 9 -11 -5 -28 -18 -21 -18 -21 3 -3 11 9 24
17 29 17 4 0 -4 -9 -19 -21 -14 -11 -30 -18 -36 -14 -6 3 -7 0 -4 -9 3 -9 2
-16 -4 -16 -6 0 -12 5 -14 12 -3 7 -7 5 -11 -6 -4 -10 -3 -15 3 -11 6 3 10 -1
10 -10 0 -11 -5 -15 -15 -11 -14 5 -20 -5 -16 -27 1 -4 -7 -3 -18 2 -17 9 -18
8 -13 -12 5 -20 4 -21 -13 -7 -17 14 -18 14 -6 -9 7 -13 8 -21 3 -17 -6 4 -15
-1 -20 -10 -6 -10 -16 -15 -25 -11 -9 3 -19 1 -23 -5 -5 -7 -2 -8 6 -3 10 6
12 4 7 -9 -4 -10 -7 -20 -7 -23 0 -3 -7 1 -17 8 -15 13 -15 12 -4 -10 7 -13 8
-21 3 -17 -6 4 -15 -1 -20 -10 -6 -10 -16 -15 -25 -11 -9 3 -19 1 -23 -5 -4
-7 -3 -8 4 -4 13 8 15 -4 6 -28 -3 -9 -12 -12 -22 -9 -9 4 -14 2 -10 -2 5 -5
-7 -22 -25 -38 -17 -17 -27 -27 -20 -23 6 3 15 1 19 -5 4 -8 3 -9 -4 -5 -7 4
-12 2 -12 -4 0 -6 -5 -8 -10 -5 -6 3 -10 2 -10 -3 0 -5 -11 -15 -25 -22 -14
-7 -23 -15 -20 -18 2 -3 11 1 20 8 18 15 20 4 2 -14 -7 -7 -18 -11 -26 -8 -11
4 -11 0 0 -19 12 -23 11 -23 -7 -9 -10 8 -16 11 -12 6 10 -12 -10 -46 -27 -46
-8 0 -15 -4 -15 -10 0 -5 8 -6 18 -3 10 4 5 -5 -13 -24 -16 -17 -33 -29 -37
-26 -4 2 -5 -4 -1 -13 5 -13 3 -15 -8 -9 -12 8 -12 6 -1 -8 12 -14 11 -16 -8
-12 -18 3 -20 2 -10 -10 13 -16 -3 -30 -22 -20 -7 4 -4 -1 7 -11 20 -16 20
-16 -3 -11 -20 5 -22 3 -10 -11 11 -13 11 -15 -4 -9 -10 3 -17 3 -17 -1 4 -26
-2 -42 -13 -36 -9 5 -9 3 1 -9 11 -14 11 -18 -3 -23 -9 -3 -16 -15 -16 -26 0
-12 -4 -17 -12 -12 -7 5 -9 0 -6 -14 4 -12 0 -23 -8 -26 -7 -3 -16 -17 -20
-31 -3 -14 -10 -25 -15 -25 -5 0 -6 -7 -3 -15 4 -8 1 -15 -4 -15 -6 0 -12 -10
-14 -22 -2 -13 -9 -22 -17 -20 -12 3 -12 0 -1 -12 8 -11 9 -16 1 -16 -6 0 -11
-5 -11 -11 0 -5 6 -7 13 -3 6 4 2 -3 -11 -15 -12 -12 -20 -26 -17 -32 4 -5 2
-9 -4 -9 -6 0 -7 -7 -4 -17 5 -12 3 -14 -8 -8 -12 8 -12 6 0 -8 11 -14 11 -18
-2 -23 -9 -3 -14 -15 -12 -30 2 -25 -10 -33 -18 -11 -3 6 -3 -5 -1 -26 2 -31
0 -36 -10 -27 -11 8 -13 4 -11 -19 1 -18 -3 -32 -11 -35 -8 -3 -14 -11 -13
-18 0 -10 2 -10 6 0 2 6 9 12 14 12 5 0 4 -11 -3 -25 -6 -13 -14 -22 -19 -19
-4 2 -4 -9 1 -26 7 -23 5 -32 -5 -36 -7 -3 -12 -13 -10 -22 1 -9 -5 -20 -14
-24 -14 -6 -14 -7 1 -7 11 -1 15 -6 12 -16 -4 -8 -10 -13 -14 -10 -4 3 -7 -13
-5 -35 2 -29 0 -38 -8 -33 -7 4 -6 -1 2 -10 10 -13 10 -17 1 -17 -9 0 -9 -4 1
-17 10 -11 10 -14 2 -9 -8 4 -13 2 -13 -4 0 -6 -5 -8 -11 -4 -8 4 -8 1 -2 -12
11 -23 11 -34 -1 -53 -6 -10 -5 -12 2 -7 7 4 12 2 12 -3 0 -6 -5 -11 -11 -11
-8 0 -7 -6 2 -17 10 -11 10 -14 2 -9 -8 4 -13 2 -13 -4 0 -6 -5 -8 -11 -4 -8
4 -8 1 -1 -12 13 -24 13 -34 0 -58 -5 -10 -6 -16 -1 -13 10 6 10 -384 -1 -401
-3 -6 -1 -14 5 -18 8 -5 9 -3 4 6 -6 9 -4 11 4 6 7 -5 10 -14 7 -21 -2 -7 1
-18 7 -25 9 -10 9 -11 -2 -5 -10 6 -12 4 -6 -6 11 -16 13 -119 3 -119 -4 0 -5
-7 -2 -15 4 -8 12 -15 19 -15 8 0 11 -8 8 -21 -4 -12 0 -25 8 -30 12 -7 12 -9
-1 -9 -12 0 -12 -2 -2 -9 7 -4 14 -23 16 -42 2 -19 8 -46 14 -61 6 -15 9 -35
5 -45 -5 -11 -3 -14 6 -8 10 5 11 2 7 -12 -4 -12 1 -27 14 -40 18 -20 18 -22
2 -26 -16 -4 -16 -5 1 -6 14 -1 16 -5 7 -21 -9 -16 -8 -19 6 -13 14 5 16 1 12
-19 -3 -17 1 -29 13 -37 11 -6 16 -17 13 -26 -4 -9 2 -26 12 -38 19 -21 19
-21 0 -7 -18 14 -19 14 -8 -6 6 -12 8 -24 4 -28 -3 -4 1 -4 11 0 13 5 17 1 17
-20 0 -14 5 -26 11 -26 8 0 7 -6 -2 -17 -12 -15 -12 -16 6 -9 11 4 16 4 12 0
-4 -4 -2 -13 4 -20 6 -8 9 -21 5 -29 -3 -9 -2 -14 3 -11 5 3 15 -2 22 -11 8
-10 9 -14 2 -10 -6 4 -14 3 -18 -3 -3 -5 -1 -10 5 -10 6 0 9 -4 6 -9 -3 -5 2
-8 12 -7 12 1 16 -5 14 -23 -3 -16 0 -21 9 -16 9 6 11 1 7 -18 -3 -15 -1 -24
4 -21 5 3 12 -3 15 -15 3 -12 10 -18 17 -14 6 3 6 0 -1 -8 -17 -17 -16 -29 1
-29 8 0 18 -9 21 -20 4 -11 11 -18 16 -15 5 4 9 -1 9 -10 0 -9 -4 -13 -10 -10
-16 10 -11 -1 7 -16 14 -12 16 -12 8 0 -5 10 -4 12 3 7 7 -4 12 -14 12 -23 0
-10 6 -13 17 -9 15 5 15 4 -1 -9 -11 -8 -14 -15 -7 -15 7 0 9 -4 6 -10 -4 -6
1 -7 11 -3 14 5 16 2 12 -15 -3 -12 -3 -21 1 -20 18 2 22 -3 12 -16 -9 -11 -9
-16 0 -22 8 -4 9 -3 5 4 -4 7 -1 12 8 12 9 0 16 -8 16 -19 0 -10 7 -22 16 -25
8 -3 12 -10 9 -16 -3 -5 -1 -10 5 -10 6 0 8 -5 4 -13 -5 -8 -2 -8 9 2 19 15
24 2 6 -16 -9 -9 -6 -11 12 -7 17 4 20 3 10 -4 -11 -8 -10 -11 7 -16 14 -5 19
-14 17 -26 -2 -11 1 -23 7 -26 7 -4 8 -2 4 4 -4 7 -2 12 3 12 10 0 15 -14 12
-34 -1 -5 5 -6 14 -2 11 4 21 -4 33 -24 9 -16 22 -30 29 -30 6 0 15 -9 18 -20
4 -11 11 -17 17 -14 7 5 9 1 5 -9 -5 -12 -1 -17 13 -17 12 0 28 -13 39 -30 10
-16 21 -27 26 -22 4 4 5 -1 2 -10 -7 -19 17 -43 33 -33 9 6 15 -8 11 -29 -1
-5 5 -6 14 -2 10 4 22 -5 35 -27 11 -17 20 -28 20 -24 0 5 7 2 15 -7 22 -21
18 -28 -7 -15 -18 9 -20 9 -12 0 10 -11 30 -18 58 -20 4 -1 6 -7 3 -14 -3 -9
4 -12 24 -11 16 1 26 -2 23 -7 -3 -5 0 -17 6 -26 11 -17 11 -17 6 0 -3 11 -2
15 4 12 6 -3 10 -12 10 -20 0 -8 7 -11 19 -8 10 3 22 0 25 -6 5 -7 0 -9 -11
-6 -10 3 -3 -2 15 -10 17 -8 32 -21 32 -28 0 -8 4 -7 10 3 8 12 10 11 10 -7 0
-16 4 -21 15 -17 8 4 15 1 15 -5 0 -6 7 -8 15 -5 8 4 17 -1 21 -10 3 -9 14
-16 23 -16 14 0 14 -2 1 -10 -12 -8 -11 -10 6 -10 11 0 30 -9 42 -20 12 -11
24 -20 27 -20 22 1 25 -2 19 -13 -5 -7 0 -6 11 3 11 9 16 10 11 3 -6 -12 5
-18 27 -14 4 0 7 -4 7 -11 0 -6 3 -9 6 -5 4 3 15 -4 25 -16 18 -20 19 -21 13
-2 -5 20 -5 20 10 1 8 -10 13 -23 9 -29 -3 -6 -1 -7 6 -3 6 4 9 12 6 17 -3 5
1 6 9 3 9 -3 16 -14 17 -23 0 -10 2 -11 6 -4 3 10 8 9 20 -2 8 -8 19 -13 24
-10 5 4 9 1 9 -5 0 -6 5 -8 10 -5 6 3 10 1 10 -6 0 -7 3 -9 7 -6 3 4 12 -1 20
-11 12 -16 13 -16 7 1 -6 17 -5 18 14 6 11 -7 19 -16 16 -20 -2 -4 1 -11 7
-15 8 -4 9 -3 5 4 -4 7 -1 12 8 12 9 0 16 -4 16 -9 0 -5 8 -8 17 -7 10 2 24
-3 31 -11 8 -7 18 -11 23 -8 5 4 9 1 9 -6 0 -8 5 -7 17 2 14 12 16 12 11 -2
-5 -12 -1 -15 19 -13 14 1 27 -4 30 -13 5 -12 7 -12 14 -1 7 10 9 11 9 0 0 -7
5 -10 10 -7 6 3 10 1 10 -4 0 -6 3 -10 8 -10 27 5 52 -2 46 -13 -5 -7 -3 -8 7
-2 21 13 39 14 39 2 0 -6 7 -4 17 3 15 12 16 12 10 -3 -4 -12 -2 -15 9 -11 7
3 14 0 14 -7 0 -10 3 -10 15 0 10 9 15 9 15 1 0 -6 7 -11 16 -11 9 0 12 -5 8
-12 -5 -7 -3 -8 6 -3 20 12 60 12 60 0 0 -5 4 -4 8 3 7 10 14 10 35 -1 15 -8
23 -18 19 -22 -4 -5 -1 -5 7 0 22 13 61 14 61 2 0 -8 3 -8 11 0 12 12 49 6 49
-9 0 -5 4 -7 9 -3 5 3 12 1 16 -5 4 -6 12 -7 18 -3 17 11 57 11 63 1 3 -4 11
-5 17 -1 17 10 47 11 47 1 0 -5 8 -4 18 1 13 7 22 7 29 0 8 -8 13 -7 17 0 5 8
13 8 27 1 10 -6 19 -7 19 -3 0 10 41 10 57 0 7 -4 14 -3 18 3 4 7 12 7 26 0
10 -6 19 -7 19 -3 0 10 41 10 58 -1 7 -4 12 -4 12 1 0 4 11 8 24 8 13 0 22 -3
20 -6 -1 -3 4 -6 12 -6 9 0 13 6 9 15 -3 9 0 12 9 9 8 -3 16 -1 18 5 3 8 11 7
27 -2 18 -9 22 -9 16 0 -5 8 -3 11 6 8 8 -3 22 1 32 10 15 14 17 13 17 -2 0
-9 5 -14 10 -11 6 4 8 10 5 15 -3 5 6 7 20 4 19 -3 25 0 25 13 0 15 2 15 16
-3 8 -10 13 -14 10 -8 -8 15 24 28 37 15 6 -6 15 -5 24 5 8 8 20 14 26 14 7 0
6 -4 -3 -10 -9 -6 -10 -10 -3 -10 7 0 17 8 22 18 8 13 10 14 11 2 0 -9 3 -11
8 -5 4 6 18 11 32 13 14 1 30 3 37 4 7 1 10 5 8 9 -3 4 2 10 11 13 8 3 13 2
10 -2 -2 -4 5 -9 17 -9 17 -2 19 0 7 7 -8 5 -12 10 -7 11 19 4 23 6 46 18 14
8 21 9 17 2 -4 -6 -3 -11 3 -11 5 0 13 5 17 11 3 6 15 8 26 6 11 -3 21 0 25 9
3 8 12 13 20 10 8 -4 11 -1 7 5 -4 8 1 9 16 4 17 -5 20 -4 15 5 -6 10 -1 12
18 8 16 -3 25 -1 24 6 -1 6 4 10 11 9 6 -2 12 2 12 8 0 8 4 8 13 0 17 -14 38
5 30 28 -4 15 -4 15 9 0 11 -13 16 -14 25 -4 7 7 10 15 7 18 -3 2 2 7 11 11 9
3 13 2 10 -4 -3 -6 -1 -10 4 -10 6 0 11 6 11 14 0 14 27 31 44 27 4 -1 14 3
22 10 7 6 18 8 24 4 5 -3 13 1 16 9 3 9 10 16 16 16 5 0 6 -5 2 -12 -4 -7 -3
-8 5 -4 9 6 9 11 -1 24 -11 13 -10 14 7 5 15 -7 29 -5 55 9 19 10 25 16 13 13
-13 -4 -23 -2 -23 4 0 6 9 11 19 11 10 0 21 7 25 15 3 8 11 15 18 15 9 0 9 -3
-2 -11 -13 -9 -13 -10 0 -6 8 2 14 12 14 21 -2 12 1 14 11 6 9 -8 14 -5 18 10
3 14 10 18 21 14 11 -4 16 -2 14 6 -2 7 3 15 11 18 8 2 11 0 8 -5 -3 -5 0 -10
7 -10 8 0 12 7 8 15 -4 10 -1 13 7 8 8 -6 11 -2 9 10 -2 15 2 18 20 16 14 -2
21 1 20 10 -2 7 7 14 20 16 12 2 22 8 22 13 0 6 -4 7 -10 4 -15 -9 -12 1 4 14
11 9 16 9 22 0 5 -8 3 -9 -6 -4 -9 6 -11 4 -5 -5 6 -10 12 -8 27 9 10 13 16
27 13 31 -3 5 3 6 14 3 10 -3 22 1 27 8 5 9 2 10 -11 5 -15 -5 -16 -4 -6 8 7
8 21 13 32 11 16 -3 18 -1 9 16 -6 10 -7 19 -3 18 20 -3 34 2 28 11 -3 6 1 10
9 10 10 0 13 6 9 18 -3 9 -3 14 2 10 4 -4 15 -2 23 5 13 10 14 9 3 -13 -11
-24 -11 -24 4 -5 8 11 13 26 10 33 -4 10 0 12 11 8 15 -6 15 -4 3 10 -13 16
-12 16 8 6 19 -11 21 -10 18 7 -2 11 3 25 11 32 12 10 13 9 8 -6 -5 -13 -4
-16 4 -11 7 4 12 16 12 26 0 11 11 27 25 36 14 9 22 20 19 25 -3 5 -1 9 5 9 5
0 12 -6 14 -12 3 -7 6 -3 6 9 1 16 6 21 21 18 17 -3 19 -1 10 16 -8 15 -8 19
2 17 7 -2 12 3 10 10 -2 10 2 10 20 1 13 -6 20 -8 16 -4 -4 5 -3 14 3 21 6 8
9 20 6 28 -6 15 19 43 30 33 3 -4 -2 -9 -11 -13 -9 -3 -14 -10 -11 -14 3 -5
15 1 28 13 19 19 20 24 7 35 -13 12 -13 13 3 8 12 -4 17 0 17 15 0 11 7 22 15
25 8 4 12 10 9 15 -3 5 0 9 6 9 6 0 8 5 4 13 -5 8 -2 7 9 -2 15 -12 17 -12 10
4 -5 14 -3 17 9 13 8 -4 15 -1 15 7 0 8 -7 11 -16 7 -13 -5 -13 -3 2 12 9 10
14 22 11 28 -4 7 -2 8 5 4 6 -4 8 -12 5 -18 -4 -6 -2 -8 4 -5 5 4 9 18 8 32
-2 13 0 22 4 20 4 -2 16 3 26 11 17 14 17 15 1 10 -11 -3 -16 -2 -12 4 3 6 12
10 20 10 8 0 17 5 21 11 4 8 -1 9 -17 5 -18 -4 -17 -3 5 8 18 8 24 16 17 20
-8 5 -7 11 3 22 17 17 30 19 20 2 -4 -6 -3 -8 4 -4 6 3 9 18 6 31 -3 18 0 25
11 25 9 0 13 5 10 10 -4 6 -11 8 -16 5 -15 -10 -10 2 8 16 14 12 16 12 8 0 -5
-10 -4 -12 4 -7 9 6 9 11 0 23 -11 12 -10 14 6 11 10 -1 20 4 22 12 4 12 3 12
-5 1 -6 -8 -12 -9 -16 -3 -3 6 3 13 14 17 11 3 19 9 19 13 -3 20 2 32 11 27 6
-3 7 1 4 9 -4 9 -1 16 6 16 9 0 9 4 -1 17 -12 15 -12 16 3 10 12 -4 15 -2 11
9 -3 7 0 14 7 14 9 0 9 4 -1 17 -12 14 -12 15 0 9 10 -7 12 -3 6 13 -4 12 -2
21 4 21 6 0 11 -6 11 -12 0 -9 3 -8 10 2 5 9 5 19 -2 27 -7 9 -7 13 2 13 8 0
11 9 7 26 -3 17 0 28 10 31 10 4 12 14 9 29 -4 14 -2 24 4 24 6 0 8 -5 4 -12
-4 -7 -3 -8 5 -4 6 4 9 11 6 16 -3 5 -1 11 5 15 5 3 10 12 10 18 0 8 -3 7 -9
-2 -7 -10 -9 -7 -8 12 1 14 7 25 12 24 6 -1 9 4 8 11 -2 6 5 12 15 13 10 0 12
3 5 6 -7 2 -13 11 -13 19 0 9 4 13 9 9 6 -3 8 4 6 15 -2 11 1 20 7 20 7 0 6 5
-1 14 -9 11 -9 16 0 22 8 5 10 3 4 -7 -5 -8 -4 -11 1 -6 9 9 10 17 13 78 0 16
5 28 10 25 5 -3 8 14 7 39 -1 25 2 45 7 45 5 0 4 7 -3 16 -11 12 -11 15 1 12
10 -2 13 4 11 21 -3 16 0 21 9 16 8 -6 10 -4 4 5 -11 18 -12 70 -1 70 5 0 3 6
-3 14 -9 10 -7 17 6 27 17 13 17 13 3 -5 -14 -18 -13 -19 2 -13 9 3 19 1 22
-6 2 -7 5 86 5 206 1 143 -2 216 -9 212 -10 -6 -12 1 -13 73 0 31 -4 42 -16
42 -13 1 -12 4 4 17 15 12 16 14 3 10 -15 -5 -16 0 -13 37 3 29 1 45 -8 49 -8
3 -12 25 -11 66 1 42 -3 61 -10 58 -8 -3 -11 9 -9 34 1 22 -3 39 -8 39 -6 0
-5 9 2 23 11 19 10 20 -2 10 -13 -11 -15 -5 -14 37 1 27 -3 46 -8 43 -4 -3 -6
-12 -3 -20 3 -8 2 -11 -4 -8 -5 3 -7 19 -5 35 2 17 -1 30 -7 30 -6 0 -5 7 3
17 12 14 12 16 0 8 -11 -6 -13 -4 -8 8 3 9 2 19 -2 22 -13 7 -45 78 -43 92 1
6 -2 14 -8 18 -5 3 -10 17 -10 30 0 13 -8 29 -17 35 -14 9 -14 10 -2 7 9 -3
16 1 16 9 0 8 -2 12 -5 9 -2 -2 -12 3 -20 12 -16 15 -20 28 -26 65 -1 10 -6
21 -11 25 -4 5 -5 1 -1 -7 4 -8 1 -7 -8 3 -8 11 -12 26 -9 35 5 11 2 14 -10 9
-15 -5 -16 -3 -7 13 7 13 7 21 -2 26 -7 5 -8 2 -3 -7 6 -10 5 -11 -3 -4 -6 6
-12 25 -14 42 -1 18 -4 30 -6 28 -10 -10 -39 29 -34 48 4 16 2 19 -13 13 -14
-5 -16 -4 -7 7 13 16 -2 37 -27 37 -12 0 -12 3 -3 12 7 7 12 17 12 23 0 5 -5
3 -10 -5 -7 -12 -10 -12 -10 -1 0 8 -7 11 -17 7 -17 -5 -17 -5 -1 6 15 11 15
13 -4 22 -12 6 -28 22 -37 36 -9 13 -11 21 -5 18 6 -4 11 -1 11 7 0 8 -4 12
-9 9 -4 -3 -15 1 -23 10 -17 17 -20 30 -5 21 6 -3 10 -1 10 4 0 6 -10 11 -21
11 -17 0 -19 3 -10 14 15 18 -10 41 -26 25 -8 -8 -15 -5 -23 11 -8 15 -8 20
-1 16 27 -17 7 14 -25 39 -22 17 -33 33 -30 42 4 9 2 11 -6 7 -6 -4 -16 0 -22
8 -6 8 -18 18 -26 21 -9 4 -6 5 8 3 12 -2 22 0 22 5 0 5 -9 9 -21 9 -11 0 -18
4 -14 9 3 5 0 13 -6 17 -8 4 -9 3 -5 -4 4 -7 4 -12 -1 -12 -10 0 -34 50 -28
60 2 4 -7 6 -20 4 -15 -1 -25 3 -25 10 0 7 -11 19 -25 26 -14 7 -25 17 -25 22
0 5 5 6 12 2 7 -4 8 -3 4 5 -4 6 -12 9 -17 6 -5 -4 -9 3 -9 15 0 16 -4 20 -18
16 -13 -4 -23 1 -32 19 -7 14 -19 25 -26 25 -7 0 -16 5 -20 12 -5 7 -2 8 7 3
8 -5 11 -5 7 0 -4 4 -18 13 -30 20 -13 6 -22 17 -21 23 2 6 -3 9 -11 6 -8 -3
-17 0 -21 5 -3 6 -12 8 -18 4 -9 -5 -9 -3 0 8 10 12 8 17 -10 29 -21 13 -21
12 -7 -6 14 -18 14 -18 -3 -5 -10 8 -15 21 -12 29 4 12 3 13 -10 2 -11 -9 -15
-9 -15 -1 0 7 -4 9 -10 6 -9 -5 -14 7 -12 26 1 4 -8 5 -18 2 -12 -3 -20 0 -20
6 0 7 4 9 10 6 6 -3 7 1 4 10 -6 14 -8 14 -19 -1 -9 -14 -14 -14 -20 -4 -6 9
-4 11 5 5 9 -5 11 -4 6 3 -4 7 -12 12 -17 12 -16 0 -39 27 -31 36 4 5 -2 2
-12 -6 -18 -13 -19 -13 -14 1 5 13 2 16 -15 11 -19 -5 -20 -3 -9 10 10 13 10
18 1 24 -7 4 -9 3 -6 -3 4 -6 0 -13 -8 -17 -8 -3 -15 -1 -15 5 0 6 -6 7 -12 3
-9 -5 -8 -2 1 9 12 15 12 17 -4 11 -13 -5 -16 -4 -11 5 5 8 0 10 -18 7 -20 -4
-24 -1 -19 12 6 15 5 16 -12 2 -11 -9 -16 -10 -11 -2 4 7 1 12 -9 12 -10 0
-13 5 -9 13 5 7 0 6 -11 -3 -17 -14 -17 -13 -12 10 4 14 4 19 1 13 -3 -7 -13
-13 -22 -13 -13 0 -14 2 -4 9 11 6 9 9 -6 13 -16 4 -19 2 -16 -11 3 -9 0 -7
-8 5 -7 12 -21 20 -30 19 -11 -2 -15 2 -11 12 5 13 3 13 -15 4 -19 -10 -22 -9
-22 9 0 20 -19 23 -32 5 -4 -6 -8 -2 -8 8 0 11 -5 17 -12 14 -7 -2 -22 3 -32
12 -16 13 -18 13 -11 1 7 -12 6 -13 -7 -3 -8 7 -18 10 -21 6 -4 -3 -9 2 -13
11 -3 9 -10 13 -15 10 -5 -3 -9 -1 -9 4 0 6 -7 12 -14 15 -11 4 -13 1 -10 -11
5 -14 3 -14 -10 2 -8 10 -22 16 -31 13 -10 -4 -15 0 -16 11 0 10 -3 12 -6 5
-3 -10 -10 -10 -24 -2 -11 5 -25 7 -31 3 -6 -4 -8 -3 -5 3 9 14 -18 24 -40 16
-11 -4 -14 -3 -9 5 6 11 -19 18 -46 13 -5 0 -8 4 -8 10 0 6 -5 7 -12 2 -17
-10 -38 -13 -35 -5 1 4 -2 9 -8 10 -5 2 -18 8 -29 14 -14 8 -17 7 -10 -4 6
-11 5 -11 -9 1 -9 7 -17 10 -17 5 0 -5 -7 0 -15 10 -8 11 -15 15 -15 10 0 -6
-7 -11 -15 -11 -8 0 -15 3 -15 7 0 4 -7 7 -15 7 -8 0 -15 -4 -15 -9 0 -5 -5
-6 -10 -3 -6 4 -8 10 -5 15 3 5 -15 7 -40 6 -27 -1 -45 2 -45 8 0 6 -5 4 -10
-4 -7 -11 -10 -11 -10 -2 0 7 -4 10 -10 7 -5 -3 -10 -1 -10 5 0 16 -530 12
-562 -4z m2009 -688 c-3 -8 -6 -5 -6 6 -1 11 2 17 5 13 3 -3 4 -12 1 -19z
m114 -105 c13 -17 13 -17 -6 -3 -11 8 -22 16 -24 17 -2 2 0 3 6 3 6 0 17 -8
24 -17z m354 -443 c3 -5 1 -10 -4 -10 -6 0 -11 5 -11 10 0 6 2 10 4 10 3 0 8
-4 11 -10z m55 -110 c0 -5 -2 -10 -4 -10 -3 0 -8 5 -11 10 -3 6 -1 10 4 10 6
0 11 -4 11 -10z m181 -417 c13 -16 12 -17 -3 -4 -17 13 -22 21 -14 21 2 0 10
-8 17 -17z m-4174 -2628 c0 -8 -4 -12 -9 -9 -5 3 -6 10 -3 15 9 13 12 11 12
-6z m2783 -489 c0 -3 -4 -8 -10 -11 -5 -3 -10 -1 -10 4 0 6 5 11 10 11 6 0 10
-2 10 -4z"/>
<path d="M1036 4661 c-4 -5 -2 -12 3 -15 5 -4 12 -2 15 3 4 5 2 12 -3 15 -5 4
-12 2 -15 -3z"/>
<path d="M4190 4639 c0 -5 5 -7 10 -4 6 3 10 8 10 11 0 2 -4 4 -10 4 -5 0 -10
-5 -10 -11z"/>
<path d="M635 4290 c-3 -5 -1 -10 4 -10 6 0 11 5 11 10 0 6 -2 10 -4 10 -3 0
-8 -4 -11 -10z"/>
<path d="M4572 4281 c-11 -6 -10 -10 0 -19 11 -8 14 -7 14 9 0 10 0 19 -1 19
0 0 -6 -4 -13 -9z"/>
<path d="M4720 4055 c0 -2 6 -8 13 -14 10 -8 14 -7 14 2 0 8 -6 14 -14 14 -7
0 -13 -1 -13 -2z"/>
<path d="M5015 1770 c3 -5 8 -10 11 -10 2 0 4 5 4 10 0 6 -5 10 -11 10 -5 0
-7 -4 -4 -10z"/>
<path d="M260 1590 c0 -5 5 -10 11 -10 5 0 7 5 4 10 -3 6 -8 10 -11 10 -2 0
-4 -4 -4 -10z"/>
<path d="M665 950 c-3 -6 1 -7 9 -4 18 7 21 14 7 14 -6 0 -13 -4 -16 -10z"/>
<path d="M4476 894 c-9 -8 -16 -21 -16 -27 0 -7 5 -4 11 5 5 10 17 22 27 27 9
6 12 11 5 11 -6 0 -19 -7 -27 -16z"/>
<path d="M797 825 c-4 -8 -3 -16 1 -19 4 -3 9 4 9 15 2 23 -3 25 -10 4z"/>
<path d="M915 710 c3 -5 8 -10 11 -10 2 0 4 5 4 10 0 6 -5 10 -11 10 -5 0 -7
-4 -4 -10z"/>
<path d="M3750 345 c-7 -9 -11 -17 -9 -20 3 -2 10 5 17 15 14 24 10 26 -8 5z"/>
</g>
</svg>
